<?xml version="1.0" encoding="UTF-8" standalone="no"?>
<svg width="427px" height="198px" viewBox="0 0 427 198" version="1.1" xmlns="http://www.w3.org/2000/svg" xmlns:xlink="http://www.w3.org/1999/xlink">
    <!-- Generator: Sketch 41.1 (35376) - http://www.bohemiancoding.com/sketch -->
    <title>Group 2</title>
    <desc>Created with Sketch.</desc>
    <defs>
        <circle id="path-1" cx="81.5" cy="81.5" r="81.5"></circle>
    </defs>
    <g id="Page-1" stroke="none" stroke-width="1" fill="none" fill-rule="evenodd">
        <g id="Group-2" transform="translate(5.000000, 5.000000)">
            <g id="text" transform="translate(225.000000, 43.000000)">
                <path d="M29.699,72.525 L29.699,80.475 L29.549,80.475 C26.448,76.526 22.799,74.55 18.599,74.55 C15.048,74.55 12.086,75.824 9.712,78.375 C7.337,80.925 6.15,84 6.15,87.6 C6.15,91.2 7.275,94.275 9.525,96.825 C11.775,99.376 14.7,100.65 18.3,100.65 C22.849,100.65 26.674,98.626 29.775,94.575 L29.925,94.575 L29.925,102.6 C26.374,105 22.65,106.2 18.75,106.2 C13.399,106.2 8.937,104.427 5.363,100.876 C1.787,97.326 0,92.901 0,87.601 C0,82.402 1.838,78.001 5.513,74.401 C9.188,70.801 13.625,69.002 18.825,69.002 C22.773,69.001 26.399,70.176 29.699,72.525 L29.699,72.525 Z M71.474,100.801 C67.874,104.401 63.498,106.2 58.349,106.2 C53.199,106.2 48.824,104.4 45.224,100.801 C41.624,97.2 39.824,92.826 39.824,87.676 C39.824,82.476 41.624,78.064 45.224,74.439 C48.824,70.814 53.199,69.001 58.349,69.001 C63.498,69.001 67.874,70.813 71.474,74.439 C75.074,78.064 76.874,82.476 76.874,87.676 C76.874,92.826 75.073,97.2 71.474,100.801 Z M67.349,78.338 C64.998,75.814 61.998,74.551 58.349,74.551 C54.699,74.551 51.699,75.814 49.349,78.338 C46.998,80.863 45.824,83.951 45.824,87.601 C45.824,91.251 46.998,94.339 49.349,96.864 C51.699,99.389 54.699,100.651 58.349,100.651 C61.998,100.651 64.998,99.389 67.349,96.864 C69.699,94.34 70.874,91.252 70.874,87.601 C70.874,83.951 69.698,80.863 67.349,78.338 Z M90.073,69.976 L100.573,93.676 L111.073,69.976 L117.823,69.976 L100.573,107.551 L83.248,69.976 L90.073,69.976 Z M128.548,69.976 L139.048,93.676 L149.548,69.976 L156.298,69.976 L139.048,107.551 L121.723,69.976 L128.548,69.976 Z M196.497,88.876 L168.822,88.876 C168.871,92.176 169.971,94.964 172.122,97.238 C174.271,99.513 177.021,100.65 180.372,100.65 C184.821,100.65 188.397,98.225 191.097,93.376 L196.198,96.301 C192.647,102.901 187.222,106.2 179.923,106.2 C174.773,106.2 170.611,104.464 167.436,100.988 C164.26,97.513 162.673,93.201 162.673,88.05 C162.673,82.601 164.197,78.063 167.248,74.438 C170.297,70.813 174.473,69 179.773,69 C185.222,69 189.448,70.938 192.448,74.812 C195.448,78.686 196.797,83.376 196.497,88.876 L196.497,88.876 Z M169.122,83.775 L190.197,83.775 C189.796,81.176 188.622,78.988 186.672,77.213 C184.722,75.439 182.446,74.551 179.847,74.551 C177.248,74.551 174.898,75.45 172.797,77.251 C170.697,79.051 169.472,81.226 169.122,83.775 L169.122,83.775 Z" id="Shape" fill="#4F4D4D"></path>
                <path d="M12.9667969,0.842285156 C14.3613351,0.842285156 15.5559032,1.33959464 16.5505371,2.33422852 C17.545171,3.3288624 18.0424805,4.52343053 18.0424805,5.91796875 C18.0424805,7.31250697 17.545171,8.5070751 16.5505371,9.50170898 C15.5559032,10.4963429 14.3613351,10.9936523 12.9667969,10.9936523 C11.5722587,10.9936523 10.3776905,10.4963429 9.38305664,9.50170898 C8.38842276,8.5070751 7.89111328,7.31250697 7.89111328,5.91796875 C7.89111328,4.52343053 8.38842276,3.3288624 9.38305664,2.33422852 C10.3776905,1.33959464 11.5722587,0.842285156 12.9667969,0.842285156 Z M7.86035156,14.53125 L15.9814453,14.53125 L11.4902344,48 L3.30761719,48 L7.86035156,14.53125 Z M27.7410157,14.53125 L35.9236329,14.53125 L35.4314454,17.9150391 C38.5691564,15.0849468 41.8298659,13.6699219 45.2136719,13.6699219 C48.1052879,13.6699219 50.4739166,14.5876373 52.319629,16.4230957 C54.1653413,18.2585541 55.0881836,20.5707868 55.0881836,23.3598633 C55.0881836,24.6723698 54.913869,26.6308464 54.5652344,29.2353516 L52.0735352,48 L43.9216797,48 L46.3518555,29.6967773 C46.5979505,27.8100492 46.7209961,26.3950242 46.7209961,25.4516602 C46.7209961,24.0981378 46.3364785,23.0573767 45.5674317,22.3293457 C44.7983849,21.6013147 43.7063548,21.2373047 42.2913086,21.2373047 C40.9172783,21.2373047 39.5432686,21.7141066 38.1692383,22.6677246 C36.795208,23.6213427 35.7390662,24.9440833 35.0007813,26.6359863 C34.2624964,28.3278893 33.5857453,31.5014416 32.9705079,36.1567383 L31.4016602,48 L23.219043,48 L27.7410157,14.53125 Z M87.6119142,19.2070312 L83.7051759,25.4824219 C82.700288,23.9853441 81.6441463,22.8830602 80.5367188,22.1755371 C79.4292914,21.468014 78.3936573,21.1142578 77.4297853,21.1142578 C76.6915003,21.1142578 76.0660183,21.3193339 75.5533204,21.7294922 C75.0406225,22.1396505 74.7842774,22.6010717 74.7842774,23.1137695 C74.7842774,23.6059595 74.9893535,24.0981421 75.3995118,24.590332 C75.7891622,25.082522 76.9683496,26.0361257 78.9371095,27.4511719 C82.0748205,29.7070425 84.1409619,31.6398845 85.1355958,33.2497559 C86.1302297,34.8596272 86.6275392,36.6079007 86.6275392,38.4946289 C86.6275392,40.9760866 85.6072857,43.3242077 83.5667481,45.5390625 C81.5262106,47.7539173 78.5679882,48.8613281 74.6919923,48.8613281 C72.4566295,48.8613281 70.4212495,48.4101608 68.5857911,47.5078125 C66.7503327,46.6054642 64.7046989,44.9546018 62.4488282,42.5551758 L67.5245118,36.6489258 C69.8213983,39.6840972 72.3335802,41.2016602 75.0611329,41.2016602 C76.1480524,41.2016602 77.0144988,40.9401882 77.6604981,40.4172363 C78.3064975,39.8942845 78.6294923,39.2739294 78.6294923,38.5561523 C78.6294923,37.9819307 78.383401,37.392337 77.891211,36.7873535 C77.3990211,36.18237 76.0557728,35.1005937 73.8614259,33.5419922 C71.3184444,31.7372957 69.565044,30.1889713 68.601172,28.8969727 C67.2476496,27.0922761 66.5708985,25.1850686 66.5708985,23.175293 C66.5708985,20.3657086 67.6321672,18.0791104 69.7547364,16.3154297 C71.8773056,14.551749 74.3843606,13.6699219 77.2759767,13.6699219 C79.3062602,13.6699219 81.2339753,14.1518506 83.0591798,15.1157227 C84.8843842,16.0795947 86.4019472,17.4433506 87.6119142,19.2070312 Z M104.693262,0.842285156 C106.0878,0.842285156 107.282368,1.33959464 108.277002,2.33422852 C109.271636,3.3288624 109.768945,4.52343053 109.768945,5.91796875 C109.768945,7.31250697 109.271636,8.5070751 108.277002,9.50170898 C107.282368,10.4963429 106.0878,10.9936523 104.693262,10.9936523 C103.298724,10.9936523 102.104156,10.4963429 101.109522,9.50170898 C100.114888,8.5070751 99.6175783,7.31250697 99.6175783,5.91796875 C99.6175783,4.52343053 100.114888,3.3288624 101.109522,2.33422852 C102.104156,1.33959464 103.298724,0.842285156 104.693262,0.842285156 Z M99.5868165,14.53125 L107.70791,14.53125 L103.216699,48 L95.0340822,48 L99.5868165,14.53125 Z M145.491895,1.61132812 L153.705274,1.61132812 L147.645215,48 L139.524121,48 L139.985547,44.4008789 C138.201358,46.06202 136.535115,47.2206998 134.986768,47.8769531 C133.43842,48.5332064 131.7004,48.8613281 129.772656,48.8613281 C125.342947,48.8613281 121.820765,47.2309733 119.206006,43.9702148 C116.591247,40.7094564 115.283887,36.915549 115.283887,32.5883789 C115.283887,29.2866046 116.114445,26.1438137 117.775586,23.1599121 C119.436727,20.1760105 121.66693,17.848397 124.46626,16.177002 C127.26559,14.5056069 130.193051,13.6699219 133.248731,13.6699219 C135.299522,13.6699219 137.191349,14.1415968 138.924268,15.0849609 C140.657187,16.028325 142.087592,17.4023347 143.215528,19.2070312 L145.491895,1.61132812 Z M131.679883,41.5400391 C133.689659,41.5400391 135.443059,41.0888717 136.940137,40.1865234 C138.437215,39.2841752 139.693306,37.8691503 140.708447,35.9414062 C141.723589,34.0136622 142.231153,32.0449319 142.231153,30.0351562 C142.231153,27.3896352 141.467244,25.2619709 139.939404,23.6520996 C138.411565,22.0422283 136.396692,21.2373047 133.894727,21.2373047 C130.982603,21.2373047 128.511436,22.3139541 126.481153,24.4672852 C124.450869,26.6206162 123.435742,29.399397 123.435742,32.8037109 C123.435742,35.4287241 124.204778,37.5410076 125.742871,39.140625 C127.280965,40.7402424 129.259949,41.5400391 131.679883,41.5400391 Z M185.306153,38.1870117 L192.535156,41.9399414 C190.915031,44.0727646 188.766859,45.7595153 186.090576,47.0002441 C183.414293,48.240973 180.445817,48.8613281 177.185059,48.8613281 C172.078588,48.8613281 168.05397,47.4257956 165.111084,44.5546875 C162.168198,41.6835794 160.696778,37.8691644 160.696778,33.1113281 C160.696778,27.6767306 162.537335,23.0778997 166.218506,19.3146973 C169.899677,15.5514949 174.344701,13.6699219 179.553711,13.6699219 C182.691422,13.6699219 185.485584,14.3569267 187.93628,15.730957 C190.386975,17.1049873 192.319817,19.1044791 193.734864,21.7294922 C195.14991,24.3545053 195.857422,27.2050627 195.857422,30.28125 C195.857422,31.245122 195.754884,32.3730404 195.549805,33.6650391 L168.848633,33.6650391 C168.930665,35.9824335 169.694573,37.8281181 171.140381,39.2021484 C172.586189,40.5761787 174.580554,41.2631836 177.123535,41.2631836 C180.199723,41.2631836 182.927234,40.2378032 185.306153,38.1870117 Z M187.397949,27.6357422 C186.782712,25.5849507 185.757332,24.0314994 184.321778,22.9753418 C182.886224,21.9191842 181.153331,21.3911133 179.123047,21.3911133 C177.113271,21.3911133 175.298348,21.9345649 173.678223,23.0214844 C172.058098,24.1084039 170.827641,25.6464744 169.986817,27.6357422 L187.397949,27.6357422 Z" id="inside" fill="#2886D3"></path>
            </g>
            <path d="M26.143,35.115 C42.292,16.867 65.795,5.236 92.083,4.912 C141.497,4.309 182.041,43.877 182.646,93.292 C183.25,142.706 143.683,183.25 94.267,183.856 C68.097,184.176 44.41,173.224 27.833,155.512" id="Shape" stroke="#2886D3" stroke-width="1.919"></path>
            <path d="M158.874,161.204 C142.32,177.255 119.832,187.251 94.957,187.559 C43.338,188.187 0.986,146.853 0.352,95.235 C-0.277,43.616 41.054,1.264 92.675,0.631 C118.772,0.31 142.504,10.722 159.666,27.762" id="Shape" stroke="#2886D3" stroke-width="10.022"></path>
            <g id="Group" transform="translate(12.000000, 13.000000)">
                <mask id="mask-2" fill="white">
                    <use xlink:href="#path-1"></use>
                </mask>
                <g id="Oval-2"></g>
                <g id="Group-3" mask="url(#mask-2)" fill="#DADADA">
                    <g transform="translate(-12.000000, -16.000000)">
                        <path d="M65.372799,99.6977676 C69.838029,96.6579736 74.9464256,94.4927401 80.4516129,93.4484433 L80.4516129,81 L95.5483871,81 L95.5483871,93.4484433 C101.053574,94.4927401 106.161971,96.6579736 110.627201,99.6977676 L119.432037,90.8929317 L130.107068,101.567963 L121.302232,110.372799 C124.342026,114.838029 126.50726,119.946426 127.551557,125.451613 L140,125.451613 L140,140.548387 L127.551557,140.548387 C126.50726,146.053574 124.342026,151.161971 121.302232,155.627201 L130.107068,164.432037 L119.432037,175.107068 L110.627201,166.302232 C106.161971,169.342026 101.053574,171.50726 95.5483871,172.551557 L95.5483871,185 L80.4516129,185 L80.4516129,172.551557 C74.9464256,171.50726 69.838029,169.342026 65.372799,166.302232 L56.5679631,175.107068 L45.8929317,164.432037 L54.6977676,155.627201 C51.6579736,151.161971 49.4927401,146.053574 48.4484433,140.548387 L36,140.548387 L36,125.451613 L48.4484433,125.451613 C49.4927401,119.946426 51.6579736,114.838029 54.6977676,110.372799 L45.8929317,101.567963 L56.5679631,90.8929317 L65.372799,99.6977676 Z M88,147.258065 C95.8745116,147.258065 102.258065,140.874512 102.258065,133 C102.258065,125.125488 95.8745116,118.741935 88,118.741935 C80.1254884,118.741935 73.7419355,125.125488 73.7419355,133 C73.7419355,140.874512 80.1254884,147.258065 88,147.258065 Z" id="Combined-Shape"></path>
                        <path d="M160.418768,73.1807605 C164.28291,70.5501694 168.703638,68.6764097 173.467742,67.7726913 L173.467742,57 L186.532258,57 L186.532258,67.7726913 C191.296362,68.6764097 195.71709,70.5501694 199.581232,73.1807605 L207.200801,65.5611909 L216.438809,74.7991988 L208.81924,82.4187684 C211.449831,86.2829097 213.32359,90.7036375 214.227309,95.4677419 L225,95.4677419 L225,108.532258 L214.227309,108.532258 C213.32359,113.296362 211.449831,117.71709 208.81924,121.581232 L216.438809,129.200801 L207.200801,138.438809 L199.581232,130.81924 C195.71709,133.449831 191.296362,135.32359 186.532258,136.227309 L186.532258,147 L173.467742,147 L173.467742,136.227309 C168.703638,135.32359 164.28291,133.449831 160.418768,130.81924 L152.799199,138.438809 L143.561191,129.200801 L151.18076,121.581232 C148.550169,117.71709 146.67641,113.296362 145.772691,108.532258 L135,108.532258 L135,95.4677419 L145.772691,95.4677419 C146.67641,90.7036375 148.550169,86.2829097 151.18076,82.4187684 L143.561191,74.7991988 L152.799199,65.5611909 L160.418768,73.1807605 Z M180,114.33871 C186.814481,114.33871 192.33871,108.814481 192.33871,102 C192.33871,95.1855188 186.814481,89.6612903 180,89.6612903 C173.185519,89.6612903 167.66129,95.1855188 167.66129,102 C167.66129,108.814481 173.185519,114.33871 180,114.33871 Z" id="Combined-Shape" transform="translate(180.000000, 102.000000) rotate(-15.000000) translate(-180.000000, -102.000000) "></path>
                        <path d="M34.8998762,27.3041808 C38.0770591,25.1412504 41.7118798,23.6006036 45.6290323,22.8575462 L45.6290323,14 L56.3709677,14 L56.3709677,22.8575462 C60.2881202,23.6006036 63.9229409,25.1412504 67.1001238,27.3041808 L73.3651032,21.0392014 L80.9607986,28.6348968 L74.6958192,34.8998762 C76.8587496,38.0770591 78.3993964,41.7118798 79.1424538,45.6290323 L88,45.6290323 L88,56.3709677 L79.1424538,56.3709677 C78.3993964,60.2881202 76.8587496,63.9229409 74.6958192,67.1001238 L80.9607986,73.3651032 L73.3651032,80.9607986 L67.1001238,74.6958192 C63.9229409,76.8587496 60.2881202,78.3993964 56.3709677,79.1424538 L56.3709677,88 L45.6290323,88 L45.6290323,79.1424538 C41.7118798,78.3993964 38.0770591,76.8587496 34.8998762,74.6958192 L28.6348968,80.9607986 L21.0392014,73.3651032 L27.3041808,67.1001238 C25.1412504,63.9229409 23.6006036,60.2881202 22.8575462,56.3709677 L14,56.3709677 L14,45.6290323 L22.8575462,45.6290323 C23.6006036,41.7118798 25.1412504,38.0770591 27.3041808,34.8998762 L21.0392014,28.6348968 L28.6348968,21.0392014 L34.8998762,27.3041808 Z M51,61.1451613 C56.6030179,61.1451613 61.1451613,56.6030179 61.1451613,51 C61.1451613,45.3969821 56.6030179,40.8548387 51,40.8548387 C45.3969821,40.8548387 40.8548387,45.3969821 40.8548387,51 C40.8548387,56.6030179 45.3969821,61.1451613 51,61.1451613 Z" id="Combined-Shape" transform="translate(51.000000, 51.000000) rotate(-30.000000) translate(-51.000000, -51.000000) "></path>
                        <polygon id="1" points="108.488 32.144 105.394 34.276 102.482 29.752 109.008 25.592 114.728 25.592 114.728 44 108.488 44"></polygon>
                        <polygon id="1" points="25.488 105.144 22.394 107.276 19.482 102.752 26.008 98.592 31.728 98.592 31.728 117 25.488 117"></polygon>
                        <path d="M117.1,82.52 C115.973328,82.52 114.985338,82.3726681 114.136,82.078 C113.286662,81.7833319 112.55867,81.3846692 111.952,80.882 C111.34533,80.3793308 110.838335,79.79867 110.431,79.14 C110.023665,78.48133 109.703001,77.7880036 109.469,77.06 C109.234999,76.3319964 109.070334,75.5953371 108.975,74.85 C108.879666,74.1046629 108.832,73.3853368 108.832,72.692 C108.832,72.0159966 108.879666,71.3053371 108.975,70.56 C109.070334,69.8146629 109.234999,69.0866702 109.469,68.376 C109.703001,67.6653298 110.023665,66.9893365 110.431,66.348 C110.838335,65.7066635 111.34533,65.1433358 111.952,64.658 C112.55867,64.1726642 113.286662,63.7870014 114.136,63.501 C114.985338,63.2149986 115.973328,63.072 117.1,63.072 C118.798675,63.072 120.185328,63.3796636 121.26,63.995 C122.334672,64.6103364 123.17533,65.3903286 123.782,66.335 C124.38867,67.2796714 124.804666,68.319661 125.03,69.455 C125.255334,70.590339 125.368,71.6693282 125.368,72.692 C125.368,73.3680034 125.320334,74.0829962 125.225,74.837 C125.129666,75.5910038 124.965001,76.3319964 124.731,77.06 C124.496999,77.7880036 124.180669,78.48133 123.782,79.14 C123.383331,79.79867 122.876336,80.3793308 122.261,80.882 C121.645664,81.3846692 120.913338,81.7833319 120.064,82.078 C119.214662,82.3726681 118.226672,82.52 117.1,82.52 Z M117.1,68.402 C116.718665,68.402 116.406668,68.5319987 116.164,68.792 C115.921332,69.0520013 115.730667,69.3899979 115.592,69.806 C115.453333,70.2220021 115.358,70.6856641 115.306,71.197 C115.254,71.7083359 115.228,72.2066642 115.228,72.692 C115.228,73.1946692 115.254,73.7103307 115.306,74.239 C115.358,74.7676693 115.453333,75.2486645 115.592,75.682 C115.730667,76.1153355 115.921332,76.466332 116.164,76.735 C116.406668,77.003668 116.718665,77.138 117.1,77.138 C117.481335,77.138 117.797665,77.003668 118.049,76.735 C118.300335,76.466332 118.490999,76.1153355 118.621,75.682 C118.751001,75.2486645 118.842,74.7676693 118.894,74.239 C118.946,73.7103307 118.972,73.1946692 118.972,72.692 C118.972,72.2066642 118.946,71.7083359 118.894,71.197 C118.842,70.6856641 118.751001,70.2220021 118.621,69.806 C118.490999,69.3899979 118.300335,69.0520013 118.049,68.792 C117.797665,68.5319987 117.481335,68.402 117.1,68.402 Z" id="0"></path>
                        <path d="M141.1,60.52 C139.973328,60.52 138.985338,60.3726681 138.136,60.078 C137.286662,59.7833319 136.55867,59.3846692 135.952,58.882 C135.34533,58.3793308 134.838335,57.79867 134.431,57.14 C134.023665,56.48133 133.703001,55.7880036 133.469,55.06 C133.234999,54.3319964 133.070334,53.5953371 132.975,52.85 C132.879666,52.1046629 132.832,51.3853368 132.832,50.692 C132.832,50.0159966 132.879666,49.3053371 132.975,48.56 C133.070334,47.8146629 133.234999,47.0866702 133.469,46.376 C133.703001,45.6653298 134.023665,44.9893365 134.431,44.348 C134.838335,43.7066635 135.34533,43.1433358 135.952,42.658 C136.55867,42.1726642 137.286662,41.7870014 138.136,41.501 C138.985338,41.2149986 139.973328,41.072 141.1,41.072 C142.798675,41.072 144.185328,41.3796636 145.26,41.995 C146.334672,42.6103364 147.17533,43.3903286 147.782,44.335 C148.38867,45.2796714 148.804666,46.319661 149.03,47.455 C149.255334,48.590339 149.368,49.6693282 149.368,50.692 C149.368,51.3680034 149.320334,52.0829962 149.225,52.837 C149.129666,53.5910038 148.965001,54.3319964 148.731,55.06 C148.496999,55.7880036 148.180669,56.48133 147.782,57.14 C147.383331,57.79867 146.876336,58.3793308 146.261,58.882 C145.645664,59.3846692 144.913338,59.7833319 144.064,60.078 C143.214662,60.3726681 142.226672,60.52 141.1,60.52 Z M141.1,46.402 C140.718665,46.402 140.406668,46.5319987 140.164,46.792 C139.921332,47.0520013 139.730667,47.3899979 139.592,47.806 C139.453333,48.2220021 139.358,48.6856641 139.306,49.197 C139.254,49.7083359 139.228,50.2066642 139.228,50.692 C139.228,51.1946692 139.254,51.7103307 139.306,52.239 C139.358,52.7676693 139.453333,53.2486645 139.592,53.682 C139.730667,54.1153355 139.921332,54.466332 140.164,54.735 C140.406668,55.003668 140.718665,55.138 141.1,55.138 C141.481335,55.138 141.797665,55.003668 142.049,54.735 C142.300335,54.466332 142.490999,54.1153355 142.621,53.682 C142.751001,53.2486645 142.842,52.7676693 142.894,52.239 C142.946,51.7103307 142.972,51.1946692 142.972,50.692 C142.972,50.2066642 142.946,49.7083359 142.894,49.197 C142.842,48.6856641 142.751001,48.2220021 142.621,47.806 C142.490999,47.3899979 142.300335,47.0520013 142.049,46.792 C141.797665,46.5319987 141.481335,46.402 141.1,46.402 Z" id="0"></path>
                    </g>
                </g>
            </g>
        </g>
    </g>
</svg>